# xmcd
#
# Track frame offsets: 
#        150
#        15893
#        37279
#        49217
#        65579
#        81405
#        100771
#        113388
#        134690
#        153373
#        167005
#        181803
#        201136
#        214896
#
# Disc length: 3051 seconds
#
# Revision: 0
# Processed by: cddbd v1.5.2PL0 Copyright (c) Steve Scherf et al.
# Submitted via: ExactAudioCopy v0.99pb5
#
DISCID=bd0be90e
DTITLE=Kerri Woelke - Where We Were
DYEAR=2008
DGENRE=Rock
TTITLE0=Last Dance
TTITLE1=Sweep
TTITLE2=On My Way (To You)
TTITLE3=Take A Chance
TTITLE4=Other Side
TTITLE5=The Mom Song
TTITLE6=BC
TTITLE7=By the Mark
TTITLE8=Find Me Here
TTITLE9=If i Give My Soul
TTITLE10=What Would It Take
TTITLE11=Lame on Me
TTITLE12=Tonight, I am the Wind
TTITLE13=Last Dance (Reprise)
EXTD=
EXTT0=
EXTT1=
EXTT2=
EXTT3=
EXTT4=
EXTT5=
EXTT6=
EXTT7=
EXTT8=
EXTT9=
EXTT10=
EXTT11=
EXTT12=
EXTT13=
PLAYORDER=
